<?xml version="1.0" standalone="no"?><!DOCTYPE svg PUBLIC "-//W3C//DTD SVG 1.1//EN" "http://www.w3.org/Graphics/SVG/1.1/DTD/svg11.dtd"><svg t="1667890260488" class="icon" viewBox="0 0 1024 1024" version="1.1" xmlns="http://www.w3.org/2000/svg" p-id="8697" xmlns:xlink="http://www.w3.org/1999/xlink" width="200" height="200"><path d="M202.666667 309.333333m-32 0a32 32 0 1 0 64 0 32 32 0 1 0-64 0Z" fill="#f45d58" p-id="8698"></path><path d="M330.666667 309.333333m-32 0a32 32 0 1 0 64 0 32 32 0 1 0-64 0Z" fill="#f9bd2e" p-id="8699"></path><path d="M458.666667 309.333333m-32 0a32 32 0 1 0 64 0 32 32 0 1 0-64 0Z" fill="#42c940" p-id="8700"></path><path d="M853.333333 160h-682.666666a117.333333 117.333333 0 0 0-117.333334 117.333333v512a117.333333 117.333333 0 0 0 117.333334 117.333334h682.666666a117.333333 117.333333 0 0 0 117.333334-117.333334v-512a117.333333 117.333333 0 0 0-117.333334-117.333333z m-682.666666 64h682.666666a53.333333 53.333333 0 0 1 53.333334 53.333333v512a53.333333 53.333333 0 0 1-53.333334 53.333334h-682.666666a53.333333 53.333333 0 0 1-53.333334-53.333334v-512a53.333333 53.333333 0 0 1 53.333334-53.333333z" fill="#666666" p-id="8701"></path><path d="M928 405.333333v64h-832v-64z" fill="#666666" p-id="8702"></path></svg>